<svg xmlns="http://www.w3.org/2000/svg" xmlns:xlink="http://www.w3.org/1999/xlink" contentStyleType="text/css" data-diagram-type="SEQUENCE" height="899px" preserveAspectRatio="none" style="width:1198px;height:899px;background:#FFFFFF;" version="1.1" viewBox="0 0 1198 899" width="1198px" zoomAndPan="magnify"><title>Linear Extrusion Process Flow</title><defs/><g><text fill="#000000" font-family="sans-serif" font-size="14" font-weight="bold" lengthAdjust="spacing" textLength="237.1865" x="476.613" y="27.9951">Linear Extrusion Process Flow</text><rect fill="none" height="343.5938" style="stroke:#000000;stroke-width:1.5;" width="1171.4126" x="10" y="409.9219"/><rect fill="none" height="283.3281" style="stroke:#000000;stroke-width:1.5;" width="831.2236" x="340.189" y="463.1875"/><rect fill="none" height="104.5313" style="stroke:#000000;stroke-width:1.5;" width="811.2236" x="350.189" y="516.4531"/><rect fill="none" height="104.5313" style="stroke:#000000;stroke-width:1.5;" width="811.2236" x="350.189" y="634.9844"/><g><title>User</title><rect fill="#000000" fill-opacity="0.00000" height="790.3203" width="8" x="38.9551" y="73.5938"/><line style="stroke:#181818;stroke-width:0.5;stroke-dasharray:5,5;" x1="42" x2="42" y1="73.5938" y2="863.9141"/></g><g><title>Extruder</title><rect fill="#000000" fill-opacity="0.00000" height="790.3203" width="8" x="186.0615" y="73.5938"/><line style="stroke:#181818;stroke-width:0.5;stroke-dasharray:5,5;" x1="189.8091" x2="189.8091" y1="73.5938" y2="863.9141"/></g><g><title>Infrared Lamp</title><rect fill="#000000" fill-opacity="0.00000" height="790.3203" width="8" x="289.7515" y="73.5938"/><line style="stroke:#181818;stroke-width:0.5;stroke-dasharray:5,5;" x1="293.314" x2="293.314" y1="73.5938" y2="863.9141"/></g><g><title>Linear Rail</title><rect fill="#000000" fill-opacity="0.00000" height="790.3203" width="8" x="400.2124" y="73.5938"/><line style="stroke:#181818;stroke-width:0.5;stroke-dasharray:5,5;" x1="404.189" x2="404.189" y1="73.5938" y2="863.9141"/></g><g><title>Press</title><rect fill="#000000" fill-opacity="0.00000" height="790.3203" width="8" x="479.9355" y="73.5938"/><line style="stroke:#181818;stroke-width:0.5;stroke-dasharray:5,5;" x1="483.2358" x2="483.2358" y1="73.5938" y2="863.9141"/></g><g><title>Cylinder</title><rect fill="#000000" fill-opacity="0.00000" height="790.3203" width="8" x="551.6196" y="73.5938"/><line style="stroke:#181818;stroke-width:0.5;stroke-dasharray:5,5;" x1="554.6353" x2="554.6353" y1="73.5938" y2="863.9141"/></g><g><title>Haul Off</title><rect fill="#000000" fill-opacity="0.00000" height="790.3203" width="8" x="633.2021" y="73.5938"/><line style="stroke:#181818;stroke-width:0.5;stroke-dasharray:5,5;" x1="636.604" x2="636.604" y1="73.5938" y2="863.9141"/></g><g><title>Cooling System</title><rect fill="#000000" fill-opacity="0.00000" height="790.3203" width="8" x="740.3511" y="73.5938"/><line style="stroke:#181818;stroke-width:0.5;stroke-dasharray:5,5;" x1="743.8003" x2="743.8003" y1="73.5938" y2="863.9141"/></g><g><title>Synchronization</title><rect fill="#000000" fill-opacity="0.00000" height="790.3203" width="8" x="1084.1904" y="73.5938"/><line style="stroke:#181818;stroke-width:0.5;stroke-dasharray:5,5;" x1="1087.9683" x2="1087.9683" y1="73.5938" y2="863.9141"/></g><g class="participant participant-head" data-participant="User"><rect fill="#E2E2F0" height="30.2969" rx="2.5" ry="2.5" style="stroke:#181818;stroke-width:0.5;" width="45.9102" x="20" y="42.2969"/><text fill="#000000" font-family="sans-serif" font-size="14" lengthAdjust="spacing" textLength="31.9102" x="27" y="62.292">User</text></g><g class="participant participant-tail" data-participant="User"><rect fill="#E2E2F0" height="30.2969" rx="2.5" ry="2.5" style="stroke:#181818;stroke-width:0.5;" width="45.9102" x="20" y="862.9141"/><text fill="#000000" font-family="sans-serif" font-size="14" lengthAdjust="spacing" textLength="31.9102" x="27" y="882.9092">User</text></g><g class="participant participant-head" data-participant="extruder"><rect fill="#E2E2F0" height="30.2969" rx="2.5" ry="2.5" style="stroke:#181818;stroke-width:0.5;" width="74.5049" x="152.8091" y="42.2969"/><text fill="#000000" font-family="sans-serif" font-size="14" lengthAdjust="spacing" textLength="60.5049" x="159.8091" y="62.292">Extruder</text></g><g class="participant participant-tail" data-participant="extruder"><rect fill="#E2E2F0" height="30.2969" rx="2.5" ry="2.5" style="stroke:#181818;stroke-width:0.5;" width="74.5049" x="152.8091" y="862.9141"/><text fill="#000000" font-family="sans-serif" font-size="14" lengthAdjust="spacing" textLength="60.5049" x="159.8091" y="882.9092">Extruder</text></g><g class="participant participant-head" data-participant="InfraredLamp"><rect fill="#E2E2F0" height="30.2969" rx="2.5" ry="2.5" style="stroke:#181818;stroke-width:0.5;" width="112.875" x="237.314" y="42.2969"/><text fill="#000000" font-family="sans-serif" font-size="14" lengthAdjust="spacing" textLength="98.875" x="244.314" y="62.292">Infrared Lamp</text></g><g class="participant participant-tail" data-participant="InfraredLamp"><rect fill="#E2E2F0" height="30.2969" rx="2.5" ry="2.5" style="stroke:#181818;stroke-width:0.5;" width="112.875" x="237.314" y="862.9141"/><text fill="#000000" font-family="sans-serif" font-size="14" lengthAdjust="spacing" textLength="98.875" x="244.314" y="882.9092">Infrared Lamp</text></g><g class="participant participant-head" data-participant="rail"><rect fill="#E2E2F0" height="30.2969" rx="2.5" ry="2.5" style="stroke:#181818;stroke-width:0.5;" width="88.0469" x="360.189" y="42.2969"/><text fill="#000000" font-family="sans-serif" font-size="14" lengthAdjust="spacing" textLength="74.0469" x="367.189" y="62.292">Linear Rail</text></g><g class="participant participant-tail" data-participant="rail"><rect fill="#E2E2F0" height="30.2969" rx="2.5" ry="2.5" style="stroke:#181818;stroke-width:0.5;" width="88.0469" x="360.189" y="862.9141"/><text fill="#000000" font-family="sans-serif" font-size="14" lengthAdjust="spacing" textLength="74.0469" x="367.189" y="882.9092">Linear Rail</text></g><g class="participant participant-head" data-participant="press"><rect fill="#E2E2F0" height="30.2969" rx="2.5" ry="2.5" style="stroke:#181818;stroke-width:0.5;" width="51.3994" x="458.2358" y="42.2969"/><text fill="#000000" font-family="sans-serif" font-size="14" lengthAdjust="spacing" textLength="37.3994" x="465.2358" y="62.292">Press</text></g><g class="participant participant-tail" data-participant="press"><rect fill="#E2E2F0" height="30.2969" rx="2.5" ry="2.5" style="stroke:#181818;stroke-width:0.5;" width="51.3994" x="458.2358" y="862.9141"/><text fill="#000000" font-family="sans-serif" font-size="14" lengthAdjust="spacing" textLength="37.3994" x="465.2358" y="882.9092">Press</text></g><g class="participant participant-head" data-participant="Cylinder"><rect fill="#E2E2F0" height="30.2969" rx="2.5" ry="2.5" style="stroke:#181818;stroke-width:0.5;" width="71.9688" x="519.6353" y="42.2969"/><text fill="#000000" font-family="sans-serif" font-size="14" lengthAdjust="spacing" textLength="57.9688" x="526.6353" y="62.292">Cylinder</text></g><g class="participant participant-tail" data-participant="Cylinder"><rect fill="#E2E2F0" height="30.2969" rx="2.5" ry="2.5" style="stroke:#181818;stroke-width:0.5;" width="71.9688" x="519.6353" y="862.9141"/><text fill="#000000" font-family="sans-serif" font-size="14" lengthAdjust="spacing" textLength="57.9688" x="526.6353" y="882.9092">Cylinder</text></g><g class="participant participant-head" data-participant="haul_off"><rect fill="#E2E2F0" height="30.2969" rx="2.5" ry="2.5" style="stroke:#181818;stroke-width:0.5;" width="71.1963" x="601.604" y="42.2969"/><text fill="#000000" font-family="sans-serif" font-size="14" lengthAdjust="spacing" textLength="57.1963" x="608.604" y="62.292">Haul Off</text></g><g class="participant participant-tail" data-participant="haul_off"><rect fill="#E2E2F0" height="30.2969" rx="2.5" ry="2.5" style="stroke:#181818;stroke-width:0.5;" width="71.1963" x="601.604" y="862.9141"/><text fill="#000000" font-family="sans-serif" font-size="14" lengthAdjust="spacing" textLength="57.1963" x="608.604" y="882.9092">Haul Off</text></g><g class="participant participant-head" data-participant="CoolingSystem"><rect fill="#E2E2F0" height="30.2969" rx="2.5" ry="2.5" style="stroke:#181818;stroke-width:0.5;" width="123.1016" x="682.8003" y="42.2969"/><text fill="#000000" font-family="sans-serif" font-size="14" lengthAdjust="spacing" textLength="109.1016" x="689.8003" y="62.292">Cooling System</text></g><g class="participant participant-tail" data-participant="CoolingSystem"><rect fill="#E2E2F0" height="30.2969" rx="2.5" ry="2.5" style="stroke:#181818;stroke-width:0.5;" width="123.1016" x="682.8003" y="862.9141"/><text fill="#000000" font-family="sans-serif" font-size="14" lengthAdjust="spacing" textLength="109.1016" x="689.8003" y="882.9092">Cooling System</text></g><g class="participant participant-head" data-participant="Synchronization"><rect fill="#E2E2F0" height="30.2969" rx="2.5" ry="2.5" style="stroke:#181818;stroke-width:0.5;" width="126.4443" x="1024.9683" y="42.2969"/><text fill="#000000" font-family="sans-serif" font-size="14" lengthAdjust="spacing" textLength="112.4443" x="1031.9683" y="62.292">Synchronization</text></g><g class="participant participant-tail" data-participant="Synchronization"><rect fill="#E2E2F0" height="30.2969" rx="2.5" ry="2.5" style="stroke:#181818;stroke-width:0.5;" width="126.4443" x="1024.9683" y="862.9141"/><text fill="#000000" font-family="sans-serif" font-size="14" lengthAdjust="spacing" textLength="112.4443" x="1031.9683" y="882.9092">Synchronization</text></g><rect fill="#EEEEEE" height="3" style="stroke:#EEEEEE;stroke-width:1;" width="1191.4126" x="0" y="104.1602"/><line style="stroke:#000000;stroke-width:1;" x1="0" x2="1191.4126" y1="104.1602" y2="104.1602"/><line style="stroke:#000000;stroke-width:1;" x1="0" x2="1191.4126" y1="107.1602" y2="107.1602"/><rect fill="#EEEEEE" height="23.1328" style="stroke:#000000;stroke-width:2;" width="110.624" x="540.3943" y="93.5938"/><text fill="#000000" font-family="sans-serif" font-size="13" font-weight="bold" lengthAdjust="spacing" textLength="92.0981" x="546.3943" y="109.6606">Initialization</text><g class="message" data-participant-1="User" data-participant-2="Synchronization"><polygon fill="#181818" points="1076.1904,143.8594,1086.1904,147.8594,1076.1904,151.8594,1080.1904,147.8594" style="stroke:#181818;stroke-width:1;"/><line style="stroke:#181818;stroke-width:1;" x1="42.9551" x2="1082.1904" y1="147.8594" y2="147.8594"/><text fill="#000000" font-family="sans-serif" font-size="13" lengthAdjust="spacing" textLength="117.2222" x="49.9551" y="142.7935">Start the machine</text></g><g class="message" data-participant-1="extruder" data-participant-2="Synchronization"><polygon fill="#181818" points="1076.1904,172.9922,1086.1904,176.9922,1076.1904,180.9922,1080.1904,176.9922" style="stroke:#181818;stroke-width:1;"/><line style="stroke:#181818;stroke-width:1;" x1="190.0615" x2="1082.1904" y1="176.9922" y2="176.9922"/><text fill="#000000" font-family="sans-serif" font-size="13" lengthAdjust="spacing" textLength="96.2178" x="197.0615" y="171.9263">Material speed</text></g><g class="message" data-participant-1="Synchronization" data-participant-2="haul_off"><polygon fill="#181818" points="648.2021,202.125,638.2021,206.125,648.2021,210.125,644.2021,206.125" style="stroke:#181818;stroke-width:1;"/><line style="stroke:#181818;stroke-width:1;" x1="642.2021" x2="1087.1904" y1="206.125" y2="206.125"/><text fill="#000000" font-family="sans-serif" font-size="13" lengthAdjust="spacing" textLength="149.2969" x="654.2021" y="201.0591">Speed Synchronization</text></g><g class="message" data-participant-1="Synchronization" data-participant-2="rail"><polygon fill="#181818" points="415.2124,231.2578,405.2124,235.2578,415.2124,239.2578,411.2124,235.2578" style="stroke:#181818;stroke-width:1;"/><line style="stroke:#181818;stroke-width:1;" x1="409.2124" x2="1087.1904" y1="235.2578" y2="235.2578"/><text fill="#000000" font-family="sans-serif" font-size="13" lengthAdjust="spacing" textLength="149.2969" x="421.2124" y="230.1919">Speed Synchronization</text></g><g class="message" data-participant-1="Synchronization" data-participant-2="InfraredLamp"><polygon fill="#181818" points="304.7515,260.3906,294.7515,264.3906,304.7515,268.3906,300.7515,264.3906" style="stroke:#181818;stroke-width:1;"/><line style="stroke:#181818;stroke-width:1;" x1="298.7515" x2="1087.1904" y1="264.3906" y2="264.3906"/><text fill="#000000" font-family="sans-serif" font-size="13" lengthAdjust="spacing" textLength="317.8843" x="310.7515" y="259.3247">Start heating, and keep the desired temperature</text></g><g class="message" data-participant-1="InfraredLamp" data-participant-2="Synchronization"><polygon fill="#181818" points="1076.1904,289.5234,1086.1904,293.5234,1076.1904,297.5234,1080.1904,293.5234" style="stroke:#181818;stroke-width:1;"/><line style="stroke:#181818;stroke-width:1;" x1="293.7515" x2="1082.1904" y1="293.5234" y2="293.5234"/><text fill="#000000" font-family="sans-serif" font-size="13" lengthAdjust="spacing" textLength="141.9209" x="300.7515" y="288.4575">Temperature reached</text></g><g class="message" data-participant-1="Synchronization" data-participant-2="haul_off"><polygon fill="#181818" points="648.2021,318.6563,638.2021,322.6563,648.2021,326.6563,644.2021,322.6563" style="stroke:#181818;stroke-width:1;"/><line style="stroke:#181818;stroke-width:1;" x1="642.2021" x2="1087.1904" y1="322.6563" y2="322.6563"/><text fill="#000000" font-family="sans-serif" font-size="13" lengthAdjust="spacing" textLength="142.7271" x="654.2021" y="317.5903">Start pullung material</text></g><g class="message" data-participant-1="Synchronization" data-participant-2="CoolingSystem"><polygon fill="#181818" points="755.3511,347.7891,745.3511,351.7891,755.3511,355.7891,751.3511,351.7891" style="stroke:#181818;stroke-width:1;"/><line style="stroke:#181818;stroke-width:1;" x1="749.3511" x2="1087.1904" y1="351.7891" y2="351.7891"/><text fill="#000000" font-family="sans-serif" font-size="13" lengthAdjust="spacing" textLength="319.8394" x="761.3511" y="346.7231">Start colling, and keep to the desire temperature</text></g><rect fill="#EEEEEE" height="3" style="stroke:#EEEEEE;stroke-width:1;" width="1191.4126" x="0" y="380.3555"/><line style="stroke:#000000;stroke-width:1;" x1="0" x2="1191.4126" y1="380.3555" y2="380.3555"/><line style="stroke:#000000;stroke-width:1;" x1="0" x2="1191.4126" y1="383.3555" y2="383.3555"/><rect fill="#EEEEEE" height="23.1328" style="stroke:#000000;stroke-width:2;" width="142.0386" x="524.687" y="369.7891"/><text fill="#000000" font-family="sans-serif" font-size="13" font-weight="bold" lengthAdjust="spacing" textLength="123.5127" x="530.687" y="385.856">Production Cycle</text><path d="M10,409.9219 L199.2251,409.9219 L199.2251,417.0547 L189.2251,427.0547 L10,427.0547 L10,409.9219" fill="#EEEEEE" style="stroke:#000000;stroke-width:1.5;"/><rect fill="none" height="343.5938" style="stroke:#000000;stroke-width:1.5;" width="1171.4126" x="10" y="409.9219"/><text fill="#000000" font-family="sans-serif" font-size="13" font-weight="bold" lengthAdjust="spacing" textLength="144.2251" x="25" y="422.9888">Continuous Process</text><g class="message" data-participant-1="User" data-participant-2="extruder"><polygon fill="#181818" points="178.0615,444.1875,188.0615,448.1875,178.0615,452.1875,182.0615,448.1875" style="stroke:#181818;stroke-width:1;"/><line style="stroke:#181818;stroke-width:1;" x1="42.9551" x2="184.0615" y1="448.1875" y2="448.1875"/><text fill="#000000" font-family="sans-serif" font-size="13" lengthAdjust="spacing" textLength="123.1064" x="49.9551" y="443.1216">Start material feed</text></g><path d="M340.189,463.1875 L416.813,463.1875 L416.813,470.3203 L406.813,480.3203 L340.189,480.3203 L340.189,463.1875" fill="#EEEEEE" style="stroke:#000000;stroke-width:1.5;"/><rect fill="none" height="283.3281" style="stroke:#000000;stroke-width:1.5;" width="831.2236" x="340.189" y="463.1875"/><text fill="#000000" font-family="sans-serif" font-size="13" font-weight="bold" lengthAdjust="spacing" textLength="31.624" x="355.189" y="476.2544">loop</text><text fill="#000000" font-family="sans-serif" font-size="11" font-weight="bold" lengthAdjust="spacing" textLength="80.0669" x="431.813" y="475.3979">[Every cycle]</text><g class="message" data-participant-1="Synchronization" data-participant-2="rail"><polygon fill="#181818" points="415.2124,497.4531,405.2124,501.4531,415.2124,505.4531,411.2124,501.4531" style="stroke:#181818;stroke-width:1;"/><line style="stroke:#181818;stroke-width:1;" x1="409.2124" x2="1087.1904" y1="501.4531" y2="501.4531"/><text fill="#000000" font-family="sans-serif" font-size="13" lengthAdjust="spacing" textLength="94.0151" x="421.2124" y="496.3872">Home position</text></g><path d="M350.189,516.4531 L419.6401,516.4531 L419.6401,523.5859 L409.6401,533.5859 L350.189,533.5859 L350.189,516.4531" fill="#EEEEEE" style="stroke:#000000;stroke-width:1.5;"/><rect fill="none" height="104.5313" style="stroke:#000000;stroke-width:1.5;" width="811.2236" x="350.189" y="516.4531"/><text fill="#000000" font-family="sans-serif" font-size="13" font-weight="bold" lengthAdjust="spacing" textLength="24.4512" x="365.189" y="529.52">opt</text><text fill="#000000" font-family="sans-serif" font-size="11" font-weight="bold" lengthAdjust="spacing" textLength="137.7363" x="434.6401" y="528.6636">[Rail at start position]</text><g class="message" data-participant-1="rail" data-participant-2="Synchronization"><polygon fill="#181818" points="1076.1904,550.7188,1086.1904,554.7188,1076.1904,558.7188,1080.1904,554.7188" style="stroke:#181818;stroke-width:1;"/><line style="stroke:#181818;stroke-width:1;" x1="404.2124" x2="1082.1904" y1="554.7188" y2="554.7188"/><text fill="#000000" font-family="sans-serif" font-size="13" lengthAdjust="spacing" textLength="148.6748" x="411.2124" y="549.6528">Initial position reached</text></g><g class="message" data-participant-1="Synchronization" data-participant-2="Cylinder"><polygon fill="#181818" points="566.6196,579.8516,556.6196,583.8516,566.6196,587.8516,562.6196,583.8516" style="stroke:#181818;stroke-width:1;"/><line style="stroke:#181818;stroke-width:1;" x1="560.6196" x2="1087.1904" y1="583.8516" y2="583.8516"/><text fill="#000000" font-family="sans-serif" font-size="13" lengthAdjust="spacing" textLength="72.0269" x="572.6196" y="578.7856">Close mold</text></g><g class="message" data-participant-1="Synchronization" data-participant-2="rail"><polygon fill="#181818" points="415.2124,608.9844,405.2124,612.9844,415.2124,616.9844,411.2124,612.9844" style="stroke:#181818;stroke-width:1;"/><line style="stroke:#181818;stroke-width:1;" x1="409.2124" x2="1087.1904" y1="612.9844" y2="612.9844"/><text fill="#000000" font-family="sans-serif" font-size="13" lengthAdjust="spacing" textLength="136.2905" x="421.2124" y="607.9185">Move to end position</text></g><path d="M350.189,634.9844 L419.6401,634.9844 L419.6401,642.1172 L409.6401,652.1172 L350.189,652.1172 L350.189,634.9844" fill="#EEEEEE" style="stroke:#000000;stroke-width:1.5;"/><rect fill="none" height="104.5313" style="stroke:#000000;stroke-width:1.5;" width="811.2236" x="350.189" y="634.9844"/><text fill="#000000" font-family="sans-serif" font-size="13" font-weight="bold" lengthAdjust="spacing" textLength="24.4512" x="365.189" y="648.0513">opt</text><text fill="#000000" font-family="sans-serif" font-size="11" font-weight="bold" lengthAdjust="spacing" textLength="130.9902" x="434.6401" y="647.1948">[Rail at end position]</text><g class="message" data-participant-1="rail" data-participant-2="Synchronization"><polygon fill="#181818" points="1076.1904,669.25,1086.1904,673.25,1076.1904,677.25,1080.1904,673.25" style="stroke:#181818;stroke-width:1;"/><line style="stroke:#181818;stroke-width:1;" x1="404.2124" x2="1082.1904" y1="673.25" y2="673.25"/><text fill="#000000" font-family="sans-serif" font-size="13" lengthAdjust="spacing" textLength="143.1968" x="411.2124" y="668.1841">Final Position reached</text></g><g class="message" data-participant-1="Synchronization" data-participant-2="Cylinder"><polygon fill="#181818" points="566.6196,698.3828,556.6196,702.3828,566.6196,706.3828,562.6196,702.3828" style="stroke:#181818;stroke-width:1;"/><line style="stroke:#181818;stroke-width:1;" x1="560.6196" x2="1087.1904" y1="702.3828" y2="702.3828"/><text fill="#000000" font-family="sans-serif" font-size="13" lengthAdjust="spacing" textLength="71.335" x="572.6196" y="697.3169">Open mold</text></g><g class="message" data-participant-1="Synchronization" data-participant-2="rail"><polygon fill="#181818" points="415.2124,727.5156,405.2124,731.5156,415.2124,735.5156,411.2124,731.5156" style="stroke:#181818;stroke-width:1;"/><line style="stroke:#181818;stroke-width:1;" x1="409.2124" x2="1087.1904" y1="731.5156" y2="731.5156"/><text fill="#000000" font-family="sans-serif" font-size="13" lengthAdjust="spacing" textLength="95.5449" x="421.2124" y="726.4497">Return to start</text></g><rect fill="#EEEEEE" height="3" style="stroke:#EEEEEE;stroke-width:1;" width="1191.4126" x="0" y="781.082"/><line style="stroke:#000000;stroke-width:1;" x1="0" x2="1191.4126" y1="781.082" y2="781.082"/><line style="stroke:#000000;stroke-width:1;" x1="0" x2="1191.4126" y1="784.082" y2="784.082"/><rect fill="#EEEEEE" height="23.1328" style="stroke:#000000;stroke-width:2;" width="138.0776" x="526.6675" y="770.5156"/><text fill="#000000" font-family="sans-serif" font-size="13" font-weight="bold" lengthAdjust="spacing" textLength="119.5518" x="532.6675" y="786.5825">Emergency Stop</text><path d="M142,808.6484 L142,848.6484 L1135,848.6484 L1135,818.6484 L1125,808.6484 L142,808.6484" fill="#FEFFDD" style="stroke:#181818;stroke-width:0.5;"/><path d="M1125,808.6484 L1125,818.6484 L1135,818.6484 L1125,808.6484" fill="#FEFFDD" style="stroke:#181818;stroke-width:0.5;"/><text fill="#000000" font-family="sans-serif" font-size="13" lengthAdjust="spacing" textLength="223.1328" x="522.7354" y="825.7153">Any component can trigger E-stop</text><text fill="#000000" font-family="sans-serif" font-size="13" lengthAdjust="spacing" textLength="214.8364" x="522.7354" y="840.8481">All movements stop immediately</text><!--SRC=[bLJHRjim37ptLn1vRdzWG0OCGOeEQD6WwPu7mQPjOR8eI78wx-j7AhPREMww6KXYqtSKZqScwcWG7hH5vM7_E_e-QB9my5HY271dwBKedF9Hbzef6s7p8w3VvA74gpWCAW2E3pdakwszybZ1W-fSmaqH2UJOiPfdfKr2Uhx94GVFnQLtJkxobxl1Q9kgoUFtgZVmLDU9r_B3Jwhh1PM8kGqSXn2nIy0nT8xawEDWozQJrNzKvAPjYgBORbcNZbgPCGZRRI4TWzkliC335pX6pWUnHUXKsRBiOkhUElvHHVIS7893h8ebW3cJBaakc6MIDOxqzt_mxvsRHRJ8xsrp0yfMy0lH9LaL1YskS-ySUXLxZqL6NvNvyeO6ZzoPpxMc6bnlJC_sTMERraYPdpEp96CMrTCx0LdzOZBlHzMNAUTkA7c3sER6K-yul-K-zDI7QOaAu6kQWTdVwUIfLgZ5KO6cBqFaO7z2Fq0f1wIWN1_xTqyTWgEWasyJdbnCcmGgGZXtQOJ0Z4a9LfqOX_cDCzbnfPnf_vY-CnHujibK_r3_8vrGsevimOKC3gvAMWLVrtIdBIiwVAJeSrLF3cqkwhgmP-IviI8j6N2XINxb8uErxz0tQCk1nuCdWCVAKaJWrlXvTcukbbIoVBCyAjGviiX_JgNY0xrk6kRjRmFdEeECuSfFs34cW8H1TnrMcgVG3585o7b_0G00]--></g></svg>