<svg xmlns="http://www.w3.org/2000/svg" xmlns:xlink="http://www.w3.org/1999/xlink" contentStyleType="text/css" data-diagram-type="DESCRIPTION" height="831px" preserveAspectRatio="none" style="width:1225px;height:831px;background:#FFFFFF;" version="1.1" viewBox="0 0 1225 831" width="1225px" zoomAndPan="magnify"><title>Extrusion and Material Processing Flow</title><defs/><g><g class="title" data-source-line="2"><text fill="#000000" font-family="sans-serif" font-size="14" font-weight="bold" lengthAdjust="spacing" textLength="312.2656" x="449.4377" y="22.9951">Extrusion and Material Processing Flow</text></g><!--cluster StartingMaterial--><g class="cluster" data-entity="StartingMaterial" data-source-line="11" data-uid="ent0002" id="cluster_StartingMaterial"><path d="M405.77,43.2969 L541.7661,43.2969 A3.75,3.75 0 0 1 544.2661,45.7969 L551.2661,65.5938 L634.77,65.5938 A2.5,2.5 0 0 1 637.27,68.0938 L637.27,138.0869 A2.5,2.5 0 0 1 634.77,140.5869 L405.77,140.5869 A2.5,2.5 0 0 1 403.27,138.0869 L403.27,45.7969 A2.5,2.5 0 0 1 405.77,43.2969" fill="none" style="stroke:#000000;stroke-width:1.5;"/><line style="stroke:#000000;stroke-width:1.5;" x1="403.27" x2="551.2661" y1="65.5938" y2="65.5938"/><text fill="#000000" font-family="sans-serif" font-size="14" font-weight="bold" lengthAdjust="spacing" textLength="134.9961" x="407.27" y="58.292">Starting Material</text></g><!--cluster Extruder--><g class="cluster" data-entity="Extruder" data-source-line="15" data-uid="ent0004" id="cluster_Extruder"><path d="M766.77,43.2969 L836.3481,43.2969 A3.75,3.75 0 0 1 838.8481,45.7969 L845.8481,65.5938 L919.77,65.5938 A2.5,2.5 0 0 1 922.27,68.0938 L922.27,138.0869 A2.5,2.5 0 0 1 919.77,140.5869 L766.77,140.5869 A2.5,2.5 0 0 1 764.27,138.0869 L764.27,45.7969 A2.5,2.5 0 0 1 766.77,43.2969" fill="none" style="stroke:#000000;stroke-width:1.5;"/><line style="stroke:#000000;stroke-width:1.5;" x1="764.27" x2="845.8481" y1="65.5938" y2="65.5938"/><text fill="#000000" font-family="sans-serif" font-size="14" font-weight="bold" lengthAdjust="spacing" textLength="68.5781" x="768.27" y="58.292">Extruder</text></g><!--cluster HaulOff--><g class="cluster" data-entity="HaulOff" data-source-line="18" data-uid="ent0006" id="cluster_HaulOff"><path d="M487.77,351.8869 L617.7846,351.8869 A3.75,3.75 0 0 1 620.2846,354.3869 L627.2846,374.1838 L684.77,374.1838 A2.5,2.5 0 0 1 687.27,376.6838 L687.27,446.6869 A2.5,2.5 0 0 1 684.77,449.1869 L487.77,449.1869 A2.5,2.5 0 0 1 485.27,446.6869 L485.27,354.3869 A2.5,2.5 0 0 1 487.77,351.8869" fill="none" style="stroke:#000000;stroke-width:1.5;"/><line style="stroke:#000000;stroke-width:1.5;" x1="485.27" x2="627.2846" y1="374.1838" y2="374.1838"/><text fill="#000000" font-family="sans-serif" font-size="14" font-weight="bold" lengthAdjust="spacing" textLength="129.0146" x="489.27" y="366.882">Haul-Off System</text></g><!--cluster Press--><g class="cluster" data-entity="Press" data-source-line="21" data-uid="ent0008" id="cluster_Press"><path d="M212.77,498.1869 L327.8755,498.1869 A3.75,3.75 0 0 1 330.3755,500.6869 L337.3755,520.4838 L600.77,520.4838 A2.5,2.5 0 0 1 603.27,522.9838 L603.27,716.2769 A2.5,2.5 0 0 1 600.77,718.7769 L212.77,718.7769 A2.5,2.5 0 0 1 210.27,716.2769 L210.27,500.6869 A2.5,2.5 0 0 1 212.77,498.1869" fill="none" style="stroke:#000000;stroke-width:1.5;"/><line style="stroke:#000000;stroke-width:1.5;" x1="210.27" x2="337.3755" y1="520.4838" y2="520.4838"/><text fill="#000000" font-family="sans-serif" font-size="14" font-weight="bold" lengthAdjust="spacing" textLength="114.1055" x="214.27" y="513.182">Press Machine</text></g><!--cluster Synchronization_Bord--><g class="cluster" data-entity="Synchronization_Bord" data-source-line="28" data-uid="ent0012" id="cluster_Synchronization_Bord"><rect fill="none" height="113.3" rx="2.5" ry="2.5" style="stroke:#181818;stroke-width:1;stroke-dasharray:7,7;" width="631" x="109.27" y="189.5869"/><rect fill="none" height="10" style="stroke:#181818;stroke-width:1;stroke-dasharray:7,7;" width="15" x="720.27" y="194.5869"/><rect fill="none" height="2" style="stroke:#181818;stroke-width:1;stroke-dasharray:7,7;" width="4" x="718.27" y="196.5869"/><rect fill="none" height="2" style="stroke:#181818;stroke-width:1;stroke-dasharray:7,7;" width="4" x="718.27" y="200.5869"/><text fill="#000000" font-family="sans-serif" font-size="14" font-style="italic" lengthAdjust="spacing" textLength="68.2637" x="390.6382" y="215.582">&#171;dashed&#187;</text><text fill="#000000" font-family="sans-serif" font-size="14" font-weight="bold" lengthAdjust="spacing" textLength="171.6162" x="338.9619" y="231.8789">Synchronization_Bord</text></g><!--cluster Temperature_Control--><g class="cluster" data-entity="Temperature_Control" data-source-line="35" data-uid="ent0017" id="cluster_Temperature_Control"><path d="M773.77,351.8869 L940.0766,351.8869 A3.75,3.75 0 0 1 942.5766,354.3869 L949.5766,374.1838 L1123.77,374.1838 A2.5,2.5 0 0 1 1126.27,376.6838 L1126.27,446.6869 A2.5,2.5 0 0 1 1123.77,449.1869 L773.77,449.1869 A2.5,2.5 0 0 1 771.27,446.6869 L771.27,354.3869 A2.5,2.5 0 0 1 773.77,351.8869" fill="none" style="stroke:#000000;stroke-width:1.5;"/><line style="stroke:#000000;stroke-width:1.5;" x1="771.27" x2="949.5766" y1="374.1838" y2="374.1838"/><text fill="#000000" font-family="sans-serif" font-size="14" font-weight="bold" lengthAdjust="spacing" textLength="165.3066" x="775.27" y="366.882">Temperature Control</text></g><!--entity Thermoplastic Material--><g class="entity" data-entity="Thermoplastic Material" data-source-line="12" data-uid="ent0003" id="entity_Thermoplastic Material"><rect fill="#F1F1F1" height="46.2969" rx="2.5" ry="2.5" style="stroke:#181818;stroke-width:0.5;" width="201.0479" x="419.74" y="78.2969"/><rect fill="#F1F1F1" height="10" style="stroke:#181818;stroke-width:0.5;" width="15" x="600.7879" y="83.2969"/><rect fill="#F1F1F1" height="2" style="stroke:#181818;stroke-width:0.5;" width="4" x="598.7879" y="85.2969"/><rect fill="#F1F1F1" height="2" style="stroke:#181818;stroke-width:0.5;" width="4" x="598.7879" y="89.2969"/><text fill="#000000" font-family="sans-serif" font-size="14" lengthAdjust="spacing" textLength="161.0479" x="434.74" y="111.292">Thermoplastic Material</text></g><!--entity Hot Material--><g class="entity" data-entity="Hot Material" data-source-line="16" data-uid="ent0005" id="entity_Hot Material"><rect fill="#F1F1F1" height="46.2969" rx="2.5" ry="2.5" style="stroke:#181818;stroke-width:0.5;" width="125.9072" x="780.31" y="78.2969"/><rect fill="#F1F1F1" height="10" style="stroke:#181818;stroke-width:0.5;" width="15" x="886.2172" y="83.2969"/><rect fill="#F1F1F1" height="2" style="stroke:#181818;stroke-width:0.5;" width="4" x="884.2172" y="85.2969"/><rect fill="#F1F1F1" height="2" style="stroke:#181818;stroke-width:0.5;" width="4" x="884.2172" y="89.2969"/><text fill="#000000" font-family="sans-serif" font-size="14" lengthAdjust="spacing" textLength="85.9072" x="795.31" y="111.292">Hot Material</text></g><!--entity Pulling Mechanism--><g class="entity" data-entity="Pulling Mechanism" data-source-line="19" data-uid="ent0007" id="entity_Pulling Mechanism"><rect fill="#F1F1F1" height="46.2969" rx="2.5" ry="2.5" style="stroke:#181818;stroke-width:0.5;" width="170.7305" x="500.9" y="386.8869"/><rect fill="#F1F1F1" height="10" style="stroke:#181818;stroke-width:0.5;" width="15" x="651.6305" y="391.8869"/><rect fill="#F1F1F1" height="2" style="stroke:#181818;stroke-width:0.5;" width="4" x="649.6305" y="393.8869"/><rect fill="#F1F1F1" height="2" style="stroke:#181818;stroke-width:0.5;" width="4" x="649.6305" y="397.8869"/><text fill="#000000" font-family="sans-serif" font-size="14" lengthAdjust="spacing" textLength="130.7305" x="515.9" y="419.882">Pulling Mechanism</text></g><!--entity Pressing Cylinder--><g class="entity" data-entity="Pressing Cylinder" data-source-line="22" data-uid="ent0009" id="entity_Pressing Cylinder"><rect fill="#F1F1F1" height="46.2969" rx="2.5" ry="2.5" style="stroke:#181818;stroke-width:0.5;" width="161.4678" x="389.53" y="656.4769"/><rect fill="#F1F1F1" height="10" style="stroke:#181818;stroke-width:0.5;" width="15" x="530.9978" y="661.4769"/><rect fill="#F1F1F1" height="2" style="stroke:#181818;stroke-width:0.5;" width="4" x="528.9978" y="663.4769"/><rect fill="#F1F1F1" height="2" style="stroke:#181818;stroke-width:0.5;" width="4" x="528.9978" y="667.4769"/><text fill="#000000" font-family="sans-serif" font-size="14" lengthAdjust="spacing" textLength="121.4678" x="404.53" y="689.472">Pressing Cylinder</text></g><!--entity Moving Rails--><g class="entity" data-entity="Moving Rails" data-source-line="23" data-uid="ent0010" id="entity_Moving Rails"><rect fill="#F1F1F1" height="46.2969" rx="2.5" ry="2.5" style="stroke:#181818;stroke-width:0.5;" width="128.4092" x="226.06" y="656.4769"/><rect fill="#F1F1F1" height="10" style="stroke:#181818;stroke-width:0.5;" width="15" x="334.4692" y="661.4769"/><rect fill="#F1F1F1" height="2" style="stroke:#181818;stroke-width:0.5;" width="4" x="332.4692" y="663.4769"/><rect fill="#F1F1F1" height="2" style="stroke:#181818;stroke-width:0.5;" width="4" x="332.4692" y="667.4769"/><text fill="#000000" font-family="sans-serif" font-size="14" lengthAdjust="spacing" textLength="88.4092" x="241.06" y="689.472">Moving Rails</text></g><!--entity Processing Area--><g class="entity" data-entity="Processing Area" data-source-line="24" data-uid="ent0011" id="entity_Processing Area"><rect fill="#F1F1F1" height="46.2969" rx="2.5" ry="2.5" style="stroke:#181818;stroke-width:0.5;" width="152.2871" x="432.12" y="533.1869"/><rect fill="#F1F1F1" height="10" style="stroke:#181818;stroke-width:0.5;" width="15" x="564.4071" y="538.1869"/><rect fill="#F1F1F1" height="2" style="stroke:#181818;stroke-width:0.5;" width="4" x="562.4071" y="540.1869"/><rect fill="#F1F1F1" height="2" style="stroke:#181818;stroke-width:0.5;" width="4" x="562.4071" y="544.1869"/><text fill="#000000" font-family="sans-serif" font-size="14" lengthAdjust="spacing" textLength="112.2871" x="447.12" y="566.182">Processing Area</text></g><!--entity Speed--><g class="entity" data-entity="Speed" data-source-line="29" data-uid="ent0013" id="entity_Speed"><rect fill="#F1F1F1" height="46.2969" rx="2.5" ry="2.5" style="stroke:#181818;stroke-width:0.5;" width="83.8867" x="419.32" y="240.5869"/><rect fill="#F1F1F1" height="10" style="stroke:#181818;stroke-width:0.5;" width="15" x="483.2067" y="245.5869"/><rect fill="#F1F1F1" height="2" style="stroke:#181818;stroke-width:0.5;" width="4" x="481.2067" y="247.5869"/><rect fill="#F1F1F1" height="2" style="stroke:#181818;stroke-width:0.5;" width="4" x="481.2067" y="251.5869"/><text fill="#000000" font-family="sans-serif" font-size="14" lengthAdjust="spacing" textLength="43.8867" x="434.32" y="273.582">Speed</text></g><!--entity Rail Position--><g class="entity" data-entity="Rail Position" data-source-line="30" data-uid="ent0014" id="entity_Rail Position"><rect fill="#F1F1F1" height="46.2969" rx="2.5" ry="2.5" style="stroke:#181818;stroke-width:0.5;" width="125.5449" x="125.49" y="240.5869"/><rect fill="#F1F1F1" height="10" style="stroke:#181818;stroke-width:0.5;" width="15" x="231.0349" y="245.5869"/><rect fill="#F1F1F1" height="2" style="stroke:#181818;stroke-width:0.5;" width="4" x="229.0349" y="247.5869"/><rect fill="#F1F1F1" height="2" style="stroke:#181818;stroke-width:0.5;" width="4" x="229.0349" y="251.5869"/><text fill="#000000" font-family="sans-serif" font-size="14" lengthAdjust="spacing" textLength="85.5449" x="140.49" y="273.582">Rail Position</text></g><!--entity Cylinder--><g class="entity" data-entity="Cylinder" data-source-line="31" data-uid="ent0015" id="entity_Cylinder"><rect fill="#F1F1F1" height="46.2969" rx="2.5" ry="2.5" style="stroke:#181818;stroke-width:0.5;" width="97.9688" x="286.28" y="240.5869"/><rect fill="#F1F1F1" height="10" style="stroke:#181818;stroke-width:0.5;" width="15" x="364.2488" y="245.5869"/><rect fill="#F1F1F1" height="2" style="stroke:#181818;stroke-width:0.5;" width="4" x="362.2488" y="247.5869"/><rect fill="#F1F1F1" height="2" style="stroke:#181818;stroke-width:0.5;" width="4" x="362.2488" y="251.5869"/><text fill="#000000" font-family="sans-serif" font-size="14" lengthAdjust="spacing" textLength="57.9688" x="301.28" y="273.582">Cylinder</text></g><!--entity Temperature Control--><g class="entity" data-entity="Temperature Control" data-source-line="32" data-uid="ent0016" id="entity_Temperature Control"><rect fill="#F1F1F1" height="46.2969" rx="2.5" ry="2.5" style="stroke:#181818;stroke-width:0.5;" width="186.7334" x="537.9" y="240.5869"/><rect fill="#F1F1F1" height="10" style="stroke:#181818;stroke-width:0.5;" width="15" x="704.6334" y="245.5869"/><rect fill="#F1F1F1" height="2" style="stroke:#181818;stroke-width:0.5;" width="4" x="702.6334" y="247.5869"/><rect fill="#F1F1F1" height="2" style="stroke:#181818;stroke-width:0.5;" width="4" x="702.6334" y="251.5869"/><text fill="#000000" font-family="sans-serif" font-size="14" lengthAdjust="spacing" textLength="146.7334" x="552.9" y="273.582">Temperature Control</text></g><!--entity Infrared Lamp--><g class="entity" data-entity="Infrared Lamp" data-source-line="36" data-uid="ent0018" id="entity_Infrared Lamp"><rect fill="#F1F1F1" height="46.2969" rx="2.5" ry="2.5" style="stroke:#181818;stroke-width:0.5;" width="138.875" x="971.83" y="386.8869"/><rect fill="#F1F1F1" height="10" style="stroke:#181818;stroke-width:0.5;" width="15" x="1090.705" y="391.8869"/><rect fill="#F1F1F1" height="2" style="stroke:#181818;stroke-width:0.5;" width="4" x="1088.705" y="393.8869"/><rect fill="#F1F1F1" height="2" style="stroke:#181818;stroke-width:0.5;" width="4" x="1088.705" y="397.8869"/><text fill="#000000" font-family="sans-serif" font-size="14" lengthAdjust="spacing" textLength="98.875" x="986.83" y="419.882">Infrared Lamp</text></g><!--entity Cooling System--><g class="entity" data-entity="Cooling System" data-source-line="37" data-uid="ent0019" id="entity_Cooling System"><rect fill="#F1F1F1" height="46.2969" rx="2.5" ry="2.5" style="stroke:#181818;stroke-width:0.5;" width="149.1016" x="787.72" y="386.8869"/><rect fill="#F1F1F1" height="10" style="stroke:#181818;stroke-width:0.5;" width="15" x="916.8216" y="391.8869"/><rect fill="#F1F1F1" height="2" style="stroke:#181818;stroke-width:0.5;" width="4" x="914.8216" y="393.8869"/><rect fill="#F1F1F1" height="2" style="stroke:#181818;stroke-width:0.5;" width="4" x="914.8216" y="397.8869"/><text fill="#000000" font-family="sans-serif" font-size="14" lengthAdjust="spacing" textLength="109.1016" x="802.72" y="419.882">Cooling System</text></g><!--entity Processed Material--><g class="entity" data-entity="Processed Material" data-source-line="54" data-uid="ent0027" id="entity_Processed Material"><rect fill="#F1F1F1" height="46.2969" rx="2.5" ry="2.5" style="stroke:#181818;stroke-width:0.5;" width="172.4873" x="704.02" y="656.4769"/><rect fill="#F1F1F1" height="10" style="stroke:#181818;stroke-width:0.5;" width="15" x="856.5073" y="661.4769"/><rect fill="#F1F1F1" height="2" style="stroke:#181818;stroke-width:0.5;" width="4" x="854.5073" y="663.4769"/><rect fill="#F1F1F1" height="2" style="stroke:#181818;stroke-width:0.5;" width="4" x="854.5073" y="667.4769"/><text fill="#000000" font-family="sans-serif" font-size="14" lengthAdjust="spacing" textLength="132.4873" x="719.02" y="689.472">Processed Material</text></g><g class="entity" data-entity="GMN29" data-source-line="56" data-uid="ent0030" id="entity_GMN29"><path d="M619.4,536.1969 L619.4,552.3269 L584.86,556.3269 L619.4,560.3269 L619.4,576.4625 A0,0 0 0 0 619.4,576.4625 L903.1358,576.4625 A0,0 0 0 0 903.1358,576.4625 L903.1358,546.1969 L893.1358,536.1969 L619.4,536.1969 A0,0 0 0 0 619.4,536.1969" fill="#FEFFDD" style="stroke:#181818;stroke-width:0.5;"/><path d="M893.1358,536.1969 L893.1358,546.1969 L903.1358,546.1969 L893.1358,536.1969" fill="#FEFFDD" style="stroke:#181818;stroke-width:0.5;"/><text fill="#000000" font-family="sans-serif" font-size="13" lengthAdjust="spacing" textLength="262.7358" x="625.4" y="553.2638">The material is positioned into the press</text><text fill="#000000" font-family="sans-serif" font-size="13" lengthAdjust="spacing" textLength="185.688" x="625.4" y="568.3966">and pressed by the cylinder.</text></g><!--link Thermoplastic Material to Hot Material--><g class="link" data-entity-1="Thermoplastic Material" data-entity-2="Hot Material" data-source-line="41" data-uid="lnk20" id="link_Thermoplastic Material_Hot Material"><path d="M621.14,101.4369 C673.15,101.4369 728.98,101.4369 774.18,101.4369" fill="none" id="Thermoplastic Material-to-Hot Material" style="stroke:#181818;stroke-width:1.5;"/><polygon fill="#181818" points="780.18,101.4369,771.18,97.4369,775.18,101.4369,771.18,105.4369,780.18,101.4369" style="stroke:#181818;stroke-width:1.5;"/><text fill="#000000" font-family="sans-serif" font-size="13" lengthAdjust="spacing" textLength="123.0239" x="639.05" y="94.5038">Material Processed</text></g><!--link Hot Material to Pulling Mechanism--><g class="link" data-entity-1="Hot Material" data-entity-2="Pulling Mechanism" data-source-line="42" data-uid="lnk21" id="link_Hot Material_Pulling Mechanism"><path d="M849.12,124.9569 C859.66,171.2169 875.97,277.5269 821.27,335.8869 C813.57,344.0969 782.17,341.1169 771.27,343.8869 C727.04,355.1169 684.0302,370.2832 647.7302,384.2432" fill="none" id="Hot Material-to-Pulling Mechanism" style="stroke:#181818;stroke-width:1.5;"/><polygon fill="#181818" points="642.13,386.3969,651.966,386.8998,646.7968,384.6022,649.0945,379.4329,642.13,386.3969" style="stroke:#181818;stroke-width:1.5;"/><text fill="#000000" font-family="sans-serif" font-size="13" font-weight="bold" lengthAdjust="spacing" textLength="66.5742" x="860.86" y="268.3038">Extruded</text></g><!--reverse link Hot Material to Infrared Lamp--><g class="link" data-entity-1="Hot Material" data-entity-2="Infrared Lamp" data-source-line="43" data-uid="lnk23" id="link_Hot Material_Infrared Lamp"><path d="M889.0496,128.1027 C945.0796,161.8527 1038.51,228.2069 1078.27,318.8869 C1088.32,341.8169 1074.38,368.3669 1060.83,386.6869" fill="none" id="Hot Material-backto-Infrared Lamp" style="stroke:#181818;stroke-width:1.5;"/><polygon fill="#181818" points="883.91,125.0069,889.5555,133.0771,888.193,127.5868,893.6833,126.2243,883.91,125.0069" style="stroke:#181818;stroke-width:1.5;"/><text fill="#000000" font-family="sans-serif" font-size="13" lengthAdjust="spacing" textLength="141.8511" x="1075.29" y="268.3038">Keeping Temperature</text></g><!--link Pulling Mechanism to Processing Area--><g class="link" data-entity-1="Pulling Mechanism" data-entity-2="Processing Area" data-source-line="48" data-uid="lnk24" id="link_Pulling Mechanism_Processing Area"><path d="M574.08,433.5769 C559.43,460.6869 537.8322,500.6281 523.2222,527.6681" fill="none" id="Pulling Mechanism-to-Processing Area" style="stroke:#181818;stroke-width:1.5;"/><polygon fill="#181818" points="520.37,532.9469,528.1674,526.9302,522.7468,528.5479,521.1291,523.1273,520.37,532.9469" style="stroke:#181818;stroke-width:1.5;"/><text fill="#000000" font-family="sans-serif" font-size="13" lengthAdjust="spacing" textLength="96.4971" x="557.55" y="478.2538">Pulled Material</text></g><!--link Processing Area to Moving Rails--><g class="link" data-entity-1="Processing Area" data-entity-2="Moving Rails" data-source-line="51" data-uid="lnk25" id="link_Processing Area_Moving Rails"><path d="M438.71,579.9569 C417.69,588.0069 394.97,597.9769 375.27,609.4769 C352.76,622.6169 334.4543,637.4771 318.1543,652.1871" fill="none" id="Processing Area-to-Moving Rails" style="stroke:#181818;stroke-width:1.5;"/><polygon fill="#181818" points="313.7,656.2069,323.0614,653.1467,317.4119,652.857,317.7016,647.2076,313.7,656.2069" style="stroke:#181818;stroke-width:1.5;"/><text fill="#000000" font-family="sans-serif" font-size="13" font-weight="bold" lengthAdjust="spacing" textLength="102.9019" x="376.27" y="622.5438">Input Position</text></g><!--link Processing Area to Pressing Cylinder--><g class="link" data-entity-1="Processing Area" data-entity-2="Pressing Cylinder" data-source-line="52" data-uid="lnk26" id="link_Processing Area_Pressing Cylinder"><path d="M501.21,579.8669 C494.38,601.6469 485.8935,628.7512 479.0835,650.4912" fill="none" id="Processing Area-to-Pressing Cylinder" style="stroke:#181818;stroke-width:1.5;"/><polygon fill="#181818" points="477.29,656.2169,483.7974,648.8241,478.7846,651.4455,476.1632,646.4327,477.29,656.2169" style="stroke:#181818;stroke-width:1.5;"/><text fill="#000000" font-family="sans-serif" font-size="13" font-weight="bold" lengthAdjust="spacing" textLength="180.5908" x="492.54" y="622.5438">Pressing/Opening Action</text></g><!--link Processing Area to Processed Material--><g class="link" data-entity-1="Processing Area" data-entity-2="Processed Material" data-source-line="54" data-uid="lnk28" id="link_Processing Area_Processed Material"><path d="M584.84,575.5769 C615.51,584.1169 650.74,595.5169 681.27,609.4769 C709.39,622.3469 733.9568,637.993 755.1568,652.853" fill="none" id="Processing Area-to-Processed Material" style="stroke:#181818;stroke-width:1.5;"/><polygon fill="#181818" points="760.07,656.2969,754.9961,647.8556,755.9757,653.427,750.4043,654.4065,760.07,656.2969" style="stroke:#181818;stroke-width:1.5;"/><text fill="#000000" font-family="sans-serif" font-size="13" lengthAdjust="spacing" textLength="111.1475" x="713.64" y="622.5438">Finished Material</text></g><!--link Cooling System to Processed Material--><g class="link" data-entity-1="Cooling System" data-entity-2="Processed Material" data-source-line="67" data-uid="lnk33" id="link_Cooling System_Processed Material"><path d="M884.69,433.3769 C897.84,448.1269 913.22,468.6469 920.27,490.1869 C932.61,527.9069 937.87,543.9069 920.27,579.4769 C903.27,613.8269 873.2775,636.5718 843.7775,653.1918" fill="none" id="Cooling System-to-Processed Material" style="stroke:#181818;stroke-width:1.5;"/><polygon fill="#181818" points="838.55,656.1369,848.3546,655.2042,842.9062,653.6826,844.4278,648.2342,838.55,656.1369" style="stroke:#181818;stroke-width:1.5;"/><text fill="#000000" font-family="sans-serif" font-size="13" lengthAdjust="spacing" textLength="127.0356" x="932.58" y="560.8938">**Pressing/Opening</text></g><!--link Speed to Pulling Mechanism--><g class="link" data-entity-1="Speed" data-entity-2="Pulling Mechanism" data-source-line="70" data-uid="lnk34" id="link_Speed_Pulling Mechanism"><path d="M454.41,287.0669 C451.22,301.8869 449.77,321.2369 458.27,335.8869 C471.56,358.7969 489.6377,372.5057 512.8777,383.8457" fill="none" id="Speed-to-Pulling Mechanism" style="stroke:#181818;stroke-width:1.5;stroke-dasharray:7,7;"/><polygon fill="#181818" points="518.27,386.4769,511.9357,378.9352,513.7764,384.2842,508.4274,386.125,518.27,386.4769" style="stroke:#181818;stroke-width:1.5;"/><text fill="#000000" font-family="sans-serif" font-size="13" lengthAdjust="spacing" textLength="141.3813" x="459.27" y="331.9538">Pulled Material Speed</text></g><!--link Hot Material to Speed--><g class="link" data-entity-1="Hot Material" data-entity-2="Speed" data-source-line="71" data-uid="lnk35" id="link_Hot Material_Speed"><path d="M779.89,116.7969 C688.96,137.5569 531.14,174.2869 520.27,181.5869 C498.43,196.2469 484.6685,216.5608 474.7185,235.0908" fill="none" id="Hot Material-to-Speed" style="stroke:#181818;stroke-width:1.5;stroke-dasharray:7,7;"/><polygon fill="#181818" points="471.88,240.3769,479.6618,234.34,474.2454,235.9718,472.6136,230.5554,471.88,240.3769" style="stroke:#181818;stroke-width:1.5;"/><text fill="#000000" font-family="sans-serif" font-size="13" lengthAdjust="spacing" textLength="141.3813" x="606.13" y="169.6538">Pulled Material Speed</text></g><!--link Speed to Moving Rails--><g class="link" data-entity-1="Speed" data-entity-2="Moving Rails" data-source-line="72" data-uid="lnk36" id="link_Speed_Moving Rails"><path d="M451.95,287.2869 C422.16,359.3969 331.6914,578.3717 301.8814,650.5117" fill="none" id="Speed-to-Moving Rails" style="stroke:#181818;stroke-width:1.5;stroke-dasharray:7,7;"/><polygon fill="#181818" points="299.59,656.0569,306.7239,649.2667,301.4995,651.4359,299.3303,646.2114,299.59,656.0569" style="stroke:#181818;stroke-width:1.5;"/><text fill="#000000" font-family="sans-serif" font-size="13" lengthAdjust="spacing" textLength="141.3813" x="378.74" y="478.2538">Pulled Material Speed</text></g><!--link Rail Position to Moving Rails--><g class="link" data-entity-1="Rail Position" data-entity-2="Moving Rails" data-source-line="73" data-uid="lnk37" id="link_Rail Position_Moving Rails"><path d="M151.96,287.3569 C98.08,324.0869 6,400.8269 32.27,482.1869 C56.55,557.4169 72.69,579.4969 136.27,626.4769 C162.49,645.8569 190.6061,656.8077 219.9261,664.6977" fill="none" id="Rail Position-to-Moving Rails" style="stroke:#181818;stroke-width:1.5;stroke-dasharray:7,7;"/><polygon fill="#181818" points="225.72,666.2569,218.0686,660.0556,220.8918,664.9576,215.9898,667.7808,225.72,666.2569" style="stroke:#181818;stroke-width:1.5;"/><text fill="#000000" font-family="sans-serif" font-size="13" lengthAdjust="spacing" textLength="126.8833" x="33.27" y="478.2538">Initial/Final position</text></g><!--link Cylinder to Pressing Cylinder--><g class="link" data-entity-1="Cylinder" data-entity-2="Pressing Cylinder" data-source-line="74" data-uid="lnk38" id="link_Cylinder_Pressing Cylinder"><path d="M303.87,287.1569 C254.86,325.1369 168.86,405.4969 200.27,482.1869 C234.37,565.4469 267.51,576.4069 342.27,626.4769 C359.91,638.2969 375.0825,645.9402 394.6725,653.8102" fill="none" id="Cylinder-to-Pressing Cylinder" style="stroke:#181818;stroke-width:1.5;stroke-dasharray:7,7;"/><polygon fill="#181818" points="400.24,656.0469,393.3798,648.9802,395.6004,654.183,390.3976,656.4035,400.24,656.0469" style="stroke:#181818;stroke-width:1.5;"/><text fill="#000000" font-family="sans-serif" font-size="13" lengthAdjust="spacing" textLength="158.1836" x="201.27" y="478.2538">Pressing/Opening action</text></g><!--link Temperature Control to Infrared Lamp--><g class="link" data-entity-1="Temperature Control" data-entity-2="Infrared Lamp" data-source-line="75" data-uid="lnk39" id="link_Temperature Control_Infrared Lamp"><path d="M705.19,287.3069 C734.57,295.6469 768.8,304.5869 800.27,310.8869 C827.51,316.3369 835.6,311.0769 862.27,318.8869 C879.25,323.8569 881.32,330.7969 898.27,335.8869 C922.35,343.1169 931.04,334.2769 954.27,343.8869 C978.33,353.8469 997.244,368.0124 1013.704,382.6324" fill="none" id="Temperature Control-to-Infrared Lamp" style="stroke:#181818;stroke-width:1.5;stroke-dasharray:7,7;"/><polygon fill="#181818" points="1018.19,386.6169,1014.1174,377.6495,1014.4517,383.2965,1008.8047,383.6308,1018.19,386.6169" style="stroke:#181818;stroke-width:1.5;"/><text fill="#000000" font-family="sans-serif" font-size="13" lengthAdjust="spacing" textLength="174.6431" x="899.27" y="331.9538">Temperature Manegement</text></g><!--link Temperature Control to Cooling System--><g class="link" data-entity-1="Temperature Control" data-entity-2="Cooling System" data-source-line="76" data-uid="lnk40" id="link_Temperature Control_Cooling System"><path d="M642.9,287.2169 C651.87,302.6769 665.56,322.7169 682.27,335.8869 C713,360.1069 747.1584,375.4683 781.5384,387.1383" fill="none" id="Temperature Control-to-Cooling System" style="stroke:#181818;stroke-width:1.5;stroke-dasharray:7,7;"/><polygon fill="#181818" points="787.22,389.0669,779.9833,382.3863,782.4853,387.4597,777.4119,389.9618,787.22,389.0669" style="stroke:#181818;stroke-width:1.5;"/><text fill="#000000" font-family="sans-serif" font-size="13" lengthAdjust="spacing" textLength="174.6431" x="683.27" y="331.9538">Temperature Manegement</text></g><g class="legend" data-source-line="61"><rect fill="#DDDDDD" height="75.1875" rx="7.5" ry="7.5" style="stroke:#000000;stroke-width:1;" width="260.3936" x="938.7475" y="736.7769"/><text fill="#000000" font-family="sans-serif" font-size="14" lengthAdjust="spacing" textLength="148.0322" x="943.7475" y="754.772">- [] : State or Product</text><text fill="#000000" font-family="sans-serif" font-size="14" lengthAdjust="spacing" textLength="250.3936" x="943.7475" y="771.0689">- component : Machinery or System</text><text fill="#000000" font-family="sans-serif" font-size="14" lengthAdjust="spacing" textLength="135.0234" x="943.7475" y="787.3657">- --&gt; : Process Flow</text><text fill="#000000" font-family="sans-serif" font-size="14" lengthAdjust="spacing" textLength="243.0996" x="943.7475" y="803.6626">- .&gt; : Synchronization input/output</text></g><!--SRC=[VLLDRzim3BthLmYv50YG53jiXw0ei7KhMgn5WoMt8YWqMuc5sf8WoSsoOVzz92L_r7QMYss9V2GV7vaBlbMXbDpiUIWapvKuE56nG8VVVWLNUsKq5phdZo98fqJ9ryvaqdkb3_osD4VcNvMs0jpuP-VCSLkex5M30V-m_CXwjvcfhD5IXwkhNFX2vjVN_0_ZyFjYN2xT9fmWQBnYVwSTDwPKqtuFIiikz2S0i29x5GV9Dq6u0Dcs1GZFPyrXMzQCC9-tXNILiQNmGMNjvGxWBlXNkLTQ1I34DuHLGkakFz_69EeWjmXwPy8xgCRgJjJbqtvF2U7x0Zys9nzabT9PrsL9MSgi45hvgk- -TbWgEiUtHv4LmC8iUhhKeviJ840gEpnzD6zuzaEeqk-YMTlCpqwA7GDyuhOj2XBIMU6CLhy5rlw2hFEkXx4LpnihPRwBxmZFryOJL-cidmRoB2ihdGYra_p6wE1CIR7nigclP_EIRAZQ2TzPok9UxvrmCkSFeh9DP6E8mqWi4WYzRCMm1mcJlaL6dMNd9C0NruDEyjLeA42v0vi5ketR2BxpUL99Ff-pGUPyKTkfUD-bj0ZKeu0ngiUyoGgxXQNqcffqsc2mgLHYYWCXG30qbTtWCne1dpbbaIc4hb9Kps4CC0wfZet15havQWppJe14mhssTMZLWbISznwBcY2QuyidApMvPGbh2gnNRQywHBg5yKPHToLh4oHtwb04B7SyBIYmBUs1f0FbkKsb08xImH0lbdX1Q-mFVS7rpnDTPgcO9PDmYI6HwWTvW4zMqYFc000B_eoPmlg2n8p3LkTr5c-waLqrky2Tq2Wgdsom-bKZaBY_yNY9fuD1X-oXCvUc3l2Wr68kR9AzArJiQDYcsmFb3MCbdHuBKo9RXC_IKk7BvRaP6aYKayDm1CazGPrrwOSQYlICo_irD-rwZtyOehm4QO5Z8mtMhSDKt9ImHxp55SKcbsV46MoHLNzHGFuQ6eZp-Z-8SGUdCVu1]--></g></svg>